<?xml version="1.0"?>
<svg width="16" height="16" xmlns="http://www.w3.org/2000/svg" xmlns:svg="http://www.w3.org/2000/svg">
 <g class="layer">
  <title>Layer 1</title>
  <g fill="#000000" id="svg_1">
   <path d="m7.74,5.11a0.8,0.74 0 1 1 1.1,-1.07l4,3.42a0.8,0.74 0 0 1 0,1.07l-4,3.42a0.8,0.74 0 0 1 -1.1,-1.07l3.37,-2.88l-3.37,-2.88z" id="svg_2"/>
   <path clip-rule="evenodd" d="m0,2.99a2.57,2.37 0 0 1 2.57,-2.37l10.85,0a2.57,2.37 0 0 1 2.57,2.37l0,10a2.57,2.37 0 0 1 -2.57,2.37l-10.85,0a2.57,2.37 0 0 1 -2.57,-2.37l0,-10zm2.57,-0.79a0.86,0.79 0 0 0 -0.86,0.79l0,10c0,0.43 0.39,0.79 0.86,0.79l1.48,0l0,-11.57l-1.48,0zm10.85,11.57l-7.77,0l0,-11.57l7.77,0a0.86,0.79 0 0 1 0.86,0.79l0,10a0.86,0.79 0 0 1 -0.86,0.79z" fill-rule="evenodd" id="svg_3"/>
  </g>
 </g>
</svg>